<svg xmlns="http://www.w3.org/2000/svg" viewBox="0 0 994.29 650.4"><defs><style>.a{fill:#0097fe;}.b{fill:#fff;}.c{opacity:0.5;}</style></defs><title>Obszar roboczy 4 kopia 2</title><rect class="a" x="-3.87" width="1002.03" height="650.4"/><path class="b" d="M563.55,371.35H508.79L500.67,393H459.26l57.85-135.64h41.41L614.44,393h-43Zm-10.64-29.41-16.25-44.31L520,341.94Z"/><path class="b" d="M723.56,257.38v31H652.94v21.29h64v30.95h-64v21.48H725.5v31H612.69V257.38Z"/><path class="b" d="M840.52,257.38v31H801V393H760.61V288.34H723v-31Z"/><circle class="b" cx="204.92" cy="407.39" r="55.01"/><circle class="b" cx="369.29" cy="243.02" r="55.01"/><circle class="b" cx="287.02" cy="325.29" r="19.45"/><path class="b" d="M369.8,238.91,202.75,218a19.44,19.44,0,1,0-21.3,21.1l19.36,168.73,8.22-.94L189.66,238.18a19.47,19.47,0,0,0,12.06-11.94l167.06,20.88Z"/><g class="c"><path class="b" d="M368.4,239,252.05,264.54a19.44,19.44,0,1,0-31.41,21.87,19.21,19.21,0,0,0,5.36,3.78L197.83,409.5l8,1.9,28.17-119.31a19.43,19.43,0,0,0,19.79-19.47l116.34-25.57Z"/></g><path class="b" d="M373.39,242.49l-8.2,1L386.7,411.3a19.51,19.51,0,0,0-11.86,12l-169.44-20-1,8.21,169.43,20a19.45,19.45,0,1,0,21-21.25Z"/><g class="c"><path class="b" d="M373.33,243.9l-8.08-1.77L339.69,358.47a19.42,19.42,0,0,0-19.47,19.79L200.91,406.42l1.9,8.05L322.12,386.3a19.45,19.45,0,1,0,25.64-26Z"/></g><rect class="b" x="215.31" y="320.44" width="144.84" height="8.27" transform="translate(-145.23 298.52) rotate(-45)"/></svg>