<svg xmlns="http://www.w3.org/2000/svg" viewBox="0 0 994.29 650.4"><defs><style>.a{fill:#fff;}.b{opacity:0.5;}</style></defs><title>Obszar roboczy 4 kopia</title><path class="a" d="M559,371.35H504.21L496.09,393H454.68l57.85-135.64h41.41L609.86,393h-43Zm-10.64-29.41-16.25-44.31-16.64,44.31Z"/><path class="a" d="M719,257.38v31H648.36v21.29h64v30.95h-64v21.48h72.56v31H608.12V257.38Z"/><path class="a" d="M835.94,257.38v31H796.47V393H756V288.34H718.4v-31Z"/><circle class="a" cx="200.34" cy="407.39" r="55.01"/><circle class="a" cx="364.71" cy="243.02" r="55.01"/><circle class="a" cx="282.44" cy="325.29" r="19.45"/><path class="a" d="M365.23,238.91,198.17,218a19.44,19.44,0,1,0-21.3,21.1l19.36,168.73,8.22-.94L185.08,238.18a19.47,19.47,0,0,0,12.06-11.94L364.2,247.12Z"/><g class="b"><path class="a" d="M363.83,239,247.47,264.54a19.45,19.45,0,1,0-26.05,25.65L193.26,409.5l8,1.9,28.17-119.31a19.43,19.43,0,0,0,19.79-19.47L365.6,247.05Z"/></g><path class="a" d="M368.81,242.49l-8.2,1L382.12,411.3a19.47,19.47,0,0,0-11.85,12l-169.45-20-1,8.21,169.43,20a19.45,19.45,0,1,0,21-21.25Z"/><g class="b"><path class="a" d="M368.75,243.9l-8.08-1.77L335.11,358.47a19.42,19.42,0,0,0-19.47,19.79L196.33,406.42l1.9,8.05L317.54,386.3a19.45,19.45,0,1,0,25.64-26Z"/></g><rect class="a" x="210.73" y="320.44" width="144.84" height="8.27" transform="translate(-146.58 295.28) rotate(-45)"/></svg>