<svg xmlns="http://www.w3.org/2000/svg" viewBox="0 0 994.29 650.4"><defs><style>.a{fill:#0097fe;}.b{opacity:0.5;}</style></defs><title>Obszar roboczy 4</title><path class="a" d="M563.82,386.24H509.07l-8.13,21.67H459.53l57.86-135.64h41.4l55.92,135.64h-43Zm-10.64-29.41-16.25-44.31-16.64,44.31Z"/><path class="a" d="M723.84,272.27v31H653.21v21.29h64v31h-64V377h72.56v31H613V272.27Z"/><path class="a" d="M840.79,272.27v31H801.32V407.91H760.88V303.23H723.26v-31Z"/><circle class="a" cx="205.19" cy="422.28" r="55.01"/><circle class="a" cx="369.56" cy="257.91" r="55.01"/><circle class="a" cx="287.29" cy="340.18" r="19.45"/><path class="a" d="M370.08,253.8,203,232.92A19.45,19.45,0,1,0,181.72,254l19.36,168.73,8.22-.94L189.94,253.07A19.48,19.48,0,0,0,202,241.13L369.05,262Z"/><g class="b"><path class="a" d="M368.68,253.87,252.32,279.43a19.45,19.45,0,1,0-26,25.65L198.11,424.39l8,1.9L234.32,307a19.42,19.42,0,0,0,19.79-19.47L370.45,262Z"/></g><path class="a" d="M373.67,257.38l-8.21,1.05L387,426.19a19.46,19.46,0,0,0-11.86,12l-169.44-20-1,8.22,169.43,20a19.45,19.45,0,1,0,21-21.25Z"/><g class="b"><path class="a" d="M373.6,258.79,365.53,257,340,373.36a19.42,19.42,0,0,0-19.47,19.79L201.18,421.31l1.9,8.05L322.39,401.2A19.46,19.46,0,1,0,348,375.15Z"/></g><rect class="a" x="215.58" y="335.33" width="144.84" height="8.27" transform="translate(-155.68 303.08) rotate(-45)"/></svg>