<svg xmlns="http://www.w3.org/2000/svg" viewBox="0 0 595.28 595.28"><defs><style>.a{fill:#fff;}.b{opacity:0.5;}</style></defs><title>Obszar roboczy 1 kopia 3</title><circle class="a" cx="224.17" cy="371.11" r="49.18"/><circle class="a" cx="371.11" cy="224.17" r="49.18"/><circle class="a" cx="297.56" cy="297.71" r="17.39"/><path class="a" d="M371.57,220.5,222.23,201.83a17.39,17.39,0,1,0-19,18.86l17.3,150.84,7.35-.84L210.53,219.84a17.4,17.4,0,0,0,10.78-10.67l149.34,18.66Z"/><g class="b"><path class="a" d="M370.32,220.56l-104,22.85A17.38,17.38,0,1,0,238.22,263a17.19,17.19,0,0,0,4.79,3.38L217.83,373l7.2,1.69L250.21,268a17.37,17.37,0,0,0,17.69-17.41l104-22.85Z"/></g><path class="a" d="M374.78,223.7l-7.34.94,19.23,150a17.39,17.39,0,0,0-10.6,10.7L224.6,367.44l-.87,7.34L375.2,392.65a17.39,17.39,0,1,0,18.81-19Z"/><g class="b"><path class="a" d="M374.72,225l-7.22-1.59-22.85,104a17.37,17.37,0,0,0-17.41,17.69L220.58,370.25l1.7,7.19,106.66-25.18A17.39,17.39,0,1,0,351.86,329Z"/></g><rect class="a" x="233.46" y="293.38" width="129.48" height="7.39" transform="translate(-122.73 297.87) rotate(-45)"/></svg>