<svg xmlns="http://www.w3.org/2000/svg" viewBox="0 0 595.28 595.28"><defs><style>.a{opacity:0.5;}.b{fill:#0097fe;}</style></defs><title>Obszar roboczy 1 kopia</title><g class="a"><path class="b" d="M370.32,220.56l-104,22.85A17.38,17.38,0,1,0,238.22,263a17.19,17.19,0,0,0,4.79,3.38L217.83,373l7.2,1.69L250.21,268a17.37,17.37,0,0,0,17.69-17.41l104-22.85Z"/></g><g class="a"><path class="b" d="M374.72,225l-7.22-1.59-22.85,104a17.37,17.37,0,0,0-17.41,17.69L220.58,370.25l1.7,7.19,106.66-25.18A17.39,17.39,0,1,0,351.86,329Z"/></g><path class="b" d="M394,373.66,381,272.35a49.18,49.18,0,1,0-58.11-57.93L222.23,201.83a17.39,17.39,0,1,0-19,18.86L214.9,322.81a49.18,49.18,0,1,0,57.54,57.72L375.2,392.65a17.39,17.39,0,1,0,18.81-19ZM256.22,333.83a49,49,0,0,0-32.05-11.9c-.65,0-1.28,0-1.92.05L210.53,219.84a17.4,17.4,0,0,0,10.78-10.67L322,221.75c0,.8-.06,1.61-.06,2.42a49,49,0,0,0,11.9,32.05L307,283.09a17.38,17.38,0,0,0-24,24Zm119.85,51.48L273.29,373.18c0-.68.06-1.38.06-2.07a49,49,0,0,0-11.9-32.06l26.71-26.71a17.38,17.38,0,0,0,24-24l26.86-26.87a49,49,0,0,0,32.06,11.9c.86,0,1.72,0,2.57-.07l13,101.33A17.39,17.39,0,0,0,376.07,385.31Z"/></svg>