<svg xmlns="http://www.w3.org/2000/svg" viewBox="0 0 595.28 595.28"><defs><style>.a{fill:#1d1d1b;}.b{fill:#fff;}.c{opacity:0.5;}</style></defs><title>Obszar roboczy 1</title><rect class="a" x="148.82" y="148.82" width="297.64" height="595.28" transform="translate(744.09 148.82) rotate(90)"/><path class="a" d="M328,177.69H294.91L290,190.79H265l35-82h25l33.81,82h-26Zm-6.43-17.78-9.83-26.8-10.06,26.8Z"/><path class="a" d="M424.77,108.78V127.5h-42.7v12.87h38.72v18.72H382.07v13h43.87v18.72H357.73v-82Z"/><path class="a" d="M495.48,108.78V127.5H471.62v63.29H447.17V127.5H424.42V108.78Z"/><circle class="b" cx="111.18" cy="496.15" r="33.26"/><circle class="b" cx="210.57" cy="396.76" r="33.26"/><circle class="b" cx="160.82" cy="446.51" r="11.76"/><path class="b" d="M210.88,394.28l-101-12.62A11.76,11.76,0,1,0,97,394.42l11.71,102,5-.57-11.7-102a11.79,11.79,0,0,0,7.29-7.22l101,12.63Z"/><g class="c"><path class="b" d="M210,394.32l-70.35,15.46a12,12,0,0,0-2.36-3.41,11.76,11.76,0,1,0-13.39,18.92l-17,72.14,4.86,1.14,17-72.13a11.75,11.75,0,0,0,12-11.78l70.34-15.45Z"/></g><path class="b" d="M213.05,396.45l-5,.63,13,101.43a11.82,11.82,0,0,0-7.17,7.25L111.47,493.67l-.58,5,102.44,12.09a11.76,11.76,0,1,0,12.72-12.84Z"/><g class="c"><path class="b" d="M213,397.3l-4.89-1.07-15.45,70.34a11.75,11.75,0,0,0-11.78,12l-72.13,17,1.14,4.86,72.14-17A11.76,11.76,0,1,0,201,470a12,12,0,0,0-3.41-2.36Z"/></g><rect class="b" x="117.46" y="443.58" width="87.57" height="5" transform="translate(-268.2 244.68) rotate(-45)"/><circle class="a" cx="111.18" cy="199.48" r="33.26"/><circle class="a" cx="210.57" cy="100.09" r="33.26"/><circle class="a" cx="160.82" cy="149.84" r="11.76"/><path class="a" d="M210.88,97.61,109.87,85A11.76,11.76,0,1,0,97,97.74l11.71,102,5-.57L102,97.17A11.79,11.79,0,0,0,109.25,90l101,12.62Z"/><g class="c"><path class="a" d="M210,97.65l-70.35,15.46a12,12,0,0,0-2.36-3.41,11.76,11.76,0,0,0-16.64,16.63,12,12,0,0,0,3.25,2.29l-17,72.13,4.86,1.15,17-72.13a11.75,11.75,0,0,0,12-11.78l70.34-15.45Z"/></g><path class="a" d="M213.05,99.78l-5,.63,13,101.43a11.83,11.83,0,0,0-7.17,7.24L111.47,197l-.58,5,102.44,12.09a11.76,11.76,0,1,0,12.72-12.85Z"/><g class="c"><path class="a" d="M213,100.63l-4.89-1.07L192.67,169.9a11.75,11.75,0,0,0-11.78,12l-72.13,17,1.14,4.86,72.14-17a11.93,11.93,0,0,0,2.29,3.25A11.76,11.76,0,0,0,201,173.34a12,12,0,0,0-3.41-2.36Z"/></g><rect class="a" x="117.46" y="146.91" width="87.57" height="5" transform="translate(-58.42 157.78) rotate(-45)"/><path class="b" d="M334.79,474.36H301.68l-4.91,13.1h-25l35-82h25l33.81,82h-26Zm-6.44-17.78-9.82-26.79-10.06,26.79Z"/><path class="b" d="M431.54,405.45v18.72h-42.7V437h38.72v18.72H388.84v13h43.87v18.72H364.5v-82Z"/><path class="b" d="M502.25,405.45v18.72H478.38v63.29H453.93V424.17H431.19V405.45Z"/></svg>