<?xml version="1.0" encoding="UTF-8" standalone="no"?>
<!--

    AET

    Copyright (C) 2013 Cognifide Limited

    Licensed under the Apache License, Version 2.0 (the "License");
    you may not use this file except in compliance with the License.
    You may obtain a copy of the License at

         http://www.apache.org/licenses/LICENSE-2.0

    Unless required by applicable law or agreed to in writing, software
    distributed under the License is distributed on an "AS IS" BASIS,
    WITHOUT WARRANTIES OR CONDITIONS OF ANY KIND, either express or implied.
    See the License for the specific language governing permissions and
    limitations under the License.

-->
<svg xmlns="http://www.w3.org/2000/svg">
  <g id="layer1">
    <path
       id="logo-path"
       style="fill:#00a6e0;fill-opacity:1;fill-rule:nonzero;stroke:none"
       d="m 88.476223,63.761377 c -1.236875,0 -2.239375,1.0025 -2.239375,2.239375 0,0.35375 0.08938,0.68375 0.235,0.98125 l -6.7575,4.11875 c -0.253125,-0.42125 -0.635625,-0.751875 -1.0975,-0.933125 l 0,-4.263125 c 2.8575,-0.404375 5.058125,-2.853125 5.058125,-5.8225 0,-0.706875 -0.130625,-1.38125 -0.359375,-2.009375 l 3.95,-2.28 c 0.349375,0.225625 0.76375,0.36 1.210625,0.36 1.236875,0 2.239375,-1.003125 2.239375,-2.24 0,-1.236875 -1.0025,-2.239375 -2.239375,-2.239375 -0.71125,0 -1.3375,0.338125 -1.7475,0.855 l -6.855,-4.178125 c 0.105625,-0.26 0.16625,-0.543125 0.16625,-0.84125 0,-1.236875 -1.0025,-2.239375 -2.239375,-2.239375 -1.23688,0 -2.23938,1.0025 -2.23938,2.239375 0,1.236875 1.0025,2.239375 2.23938,2.239375 0.78625,0 1.475,-0.40625 1.874375,-1.019375 l 6.82125,4.1575 c -0.16,0.30875 -0.259375,0.654375 -0.259375,1.02625 0,0.189375 0.03063,0.370625 0.07437,0.54625 l -3.76125,2.17125 c -1.069995,-1.474375 -2.80187,-2.43625 -4.76312,-2.43625 -1.92375,0 -3.6275,0.926875 -4.70188,2.35375 l -3.7925,-2.189375 c 0.0288,-0.144375 0.0444,-0.293125 0.0444,-0.445625 0,-1.236875 -1.0025,-2.239375 -2.23938,-2.239375 -1.23687,0 -2.23937,1.0025 -2.23937,2.239375 0,1.169375 0.89875,2.118125 2.04187,2.22 l 0,7.64875 c -1.14312,0.10125 -2.04187,1.050625 -2.04187,2.219375 0,1.236875 1.0025,2.24 2.23937,2.24 1.23688,0 2.23938,-1.003125 2.23938,-2.24 0,-1.16875 -0.89875,-2.118125 -2.04188,-2.219375 l 0,-7.64875 c 0.41063,-0.03687 0.78875,-0.176875 1.10563,-0.405 l 3.89312,2.2475 c -0.25125,0.655 -0.395,1.363125 -0.395,2.106875 0,2.97875 2.21438,5.434375 5.08563,5.826875 l 0,4.25875 c -0.83188,0.326875 -1.42313,1.1325 -1.42313,2.080625 0,1.236876 1.0025,2.239996 2.23938,2.239996 1.236875,0 2.239375,-1.00312 2.239375,-2.239996 0,-0.268125 -0.055,-0.521875 -0.14125,-0.76 l 6.796875,-4.1425 c 0.40875,0.540625 1.050625,0.895 1.780625,0.895 1.236875,0 2.239375,-1.003125 2.239375,-2.24 0,-1.236875 -1.0025,-2.239375 -2.239375,-2.239375" />
  </g>
</svg>
